<svg xmlns="http://www.w3.org/2000/svg" width="489" height="342" fill="none" viewBox="0 0 489 342"><rect width="489" height="340" y="2" fill="#fff" rx="8"/><path stroke="#069871" d="M18 309.5V30.779h13.78V17h426.443v14.234H472V309.5h-13.778v13.779H31.778V309.5z"/><path fill="#069871" d="M471.946 9c0 5.653-2.469 7.893-7.946 7.893 5.584 0 7.946 1.878 7.946 8.107 0-6.187 2.642-8.107 8.054-8.107-5.369 0-8.054-2.24-8.054-7.893m-454 0c0 5.653-2.47 7.893-7.946 7.893 5.584 0 7.946 1.878 7.946 8.107 0-6.187 2.642-8.107 8.054-8.107-5.37 0-8.054-2.24-8.054-7.893m454 306c0 5.653-2.469 7.893-7.946 7.893 5.584 0 7.946 1.878 7.946 8.107 0-6.187 2.642-8.107 8.054-8.107-5.369 0-8.054-2.24-8.054-7.893m-454 0c0 5.653-2.47 7.893-7.946 7.893 5.584 0 7.946 1.878 7.946 8.107 0-6.187 2.642-8.107 8.054-8.107-5.37 0-8.054-2.24-8.054-7.893"/><rect width="33" height="33" x="223" y="252" fill="#069871" rx="16.5"/><path fill="#fff" d="M239.822 259.764c0 6.486-2.815 9.056-9.056 9.056 6.363 0 9.056 2.154 9.056 9.3 0-7.098 3.01-9.3 9.178-9.3-6.119 0-9.178-2.57-9.178-9.056"/><path fill="#000" d="M185.195 155v-6.168l-6.24-11.592h3.552l4.296 8.28 4.296-8.28h3.576l-6.24 11.592V155zm14.656.24q-2.088 0-3.552-.936a6.24 6.24 0 0 1-2.232-2.424 7.24 7.24 0 0 1-.744-3.24 7.1 7.1 0 0 1 .744-3.216 6.2 6.2 0 0 1 2.232-2.448q1.464-.936 3.552-.936 2.112 0 3.552.936a6 6 0 0 1 2.208 2.448 6.9 6.9 0 0 1 .768 3.216 7.05 7.05 0 0 1-.768 3.24q-.744 1.488-2.208 2.424-1.44.936-3.552.936m0-2.664q1.08 0 1.8-.552a3.47 3.47 0 0 0 1.128-1.44 5 5 0 0 0 .384-1.944q0-1.056-.384-1.944a3.47 3.47 0 0 0-1.128-1.44q-.72-.552-1.8-.552-1.056 0-1.8.552a3.47 3.47 0 0 0-1.128 1.44 4.85 4.85 0 0 0-.384 1.944q0 1.032.384 1.944a3.47 3.47 0 0 0 1.128 1.44q.744.552 1.8.552m12.632 2.664q-1.992 0-3.024-1.224-1.008-1.224-1.008-3.144v-8.592h3.168v8.064q0 1.032.552 1.656.552.6 1.56.6.888 0 1.44-.456t.792-1.176a4.3 4.3 0 0 0 .264-1.488v-7.2h3.192V155h-3.192v-1.824h-.144q-.24.432-.696.912-.432.48-1.152.816-.696.336-1.752.336m9.194-.24v-12.72h3.168v1.752h.12q.336-.744 1.104-1.368t2.304-.624q.48 0 .792.072l.312.048v3.096l-.36-.048a6 6 0 0 0-.84-.048q-1.68 0-2.544.936t-.864 3.024V155zm14.315 0v-17.76h2.976l8.16 12.048V137.24h3.24V155h-2.976l-8.16-11.832V155zm22.231-12.96q1.224 0 2.016.408.792.384 1.248.864.456.456.624.744h.144v-1.776h3.192V155h-3.192v-1.776h-.144q-.168.288-.624.768t-1.248.864-2.016.384q-1.416 0-2.472-.552a5.6 5.6 0 0 1-1.776-1.512 7.2 7.2 0 0 1-1.056-2.136 8.7 8.7 0 0 1-.336-2.4q0-1.224.336-2.4a6.9 6.9 0 0 1 1.056-2.112 5.2 5.2 0 0 1 1.776-1.512q1.056-.576 2.472-.576m.84 2.616q-1.08 0-1.824.6-.72.576-1.08 1.488t-.36 1.896.36 1.896 1.08 1.512q.744.576 1.824.576t1.8-.576q.72-.6 1.08-1.512t.36-1.896-.36-1.896a3.5 3.5 0 0 0-1.08-1.488q-.72-.6-1.8-.6M267.758 155v-12.72h3.192v1.776h.12q.24-.432.672-.888a3.4 3.4 0 0 1 1.104-.792q.696-.336 1.704-.336 1.416 0 2.328.672a4 4 0 0 1 1.344 1.728h.048q.48-.912 1.416-1.656.96-.744 2.544-.744 1.344 0 2.232.624.912.6 1.344 1.632a5.5 5.5 0 0 1 .456 2.232V155h-3.192v-7.8q0-1.104-.552-1.8-.528-.72-1.584-.72-.84 0-1.368.456a2.55 2.55 0 0 0-.744 1.104 4.5 4.5 0 0 0-.216 1.368V155h-3.192v-7.8q0-1.104-.528-1.8-.528-.72-1.608-.72-.84 0-1.368.456a2.54 2.54 0 0 0-.744 1.128 4.4 4.4 0 0 0-.216 1.344V155zm26.799.24q-1.632 0-2.832-.552a6 6 0 0 1-1.968-1.512 6.7 6.7 0 0 1-1.152-2.136 7.7 7.7 0 0 1-.384-2.4q0-1.224.36-2.376a7 7 0 0 1 1.128-2.136 5.4 5.4 0 0 1 1.944-1.512q1.176-.576 2.784-.576 1.728 0 3.048.768t2.064 2.256q.744 1.464.744 3.648v.816h-8.856q.072 1.296.888 2.256.816.936 2.232.936.816 0 1.344-.264t.816-.6q.288-.36.408-.6l.12-.264h2.952l-.12.432q-.12.408-.456 1.056-.312.624-.936 1.272-.624.624-1.632 1.056t-2.496.432m-3.12-7.8h5.784q-.072-1.488-.888-2.208a2.8 2.8 0 0 0-1.92-.72q-1.224 0-2.04.792-.816.768-.936 2.136"/><path fill="#9DA0AB" d="M181.413 117v-5.232h-1.848v-.688h4.48v.688h-1.848V117zm3.396 0v-6.08h.76v2.456h.048q.055-.096.184-.264.135-.168.384-.296.248-.136.624-.136.464 0 .792.216.327.208.496.568.176.36.176.808V117h-.76v-2.68q0-.424-.24-.704-.233-.28-.68-.28-.36 0-.584.184-.225.176-.336.472-.105.288-.104.616V117zm4.84-5.048a.5.5 0 0 1-.36-.144.48.48 0 0 1-.136-.344q0-.208.136-.352a.5.5 0 0 1 .36-.144.48.48 0 0 1 .352.144.48.48 0 0 1 .144.352.47.47 0 0 1-.144.344.48.48 0 0 1-.352.144m-.376 5.048v-4.24h.76V117zm3.301.08q-.488 0-.808-.136a1.5 1.5 0 0 1-.496-.336 1.6 1.6 0 0 1-.272-.408 1.7 1.7 0 0 1-.136-.48h.768l.024.112q.031.104.12.248.096.136.288.248.2.104.528.104.376 0 .584-.176a.58.58 0 0 0 .208-.448.45.45 0 0 0-.168-.368 1.1 1.1 0 0 0-.464-.208l-.576-.136a3 3 0 0 1-.6-.216 1.24 1.24 0 0 1-.456-.368 1 1 0 0 1-.168-.592q0-.544.408-.888.408-.352 1.064-.352.44 0 .728.128.288.12.456.304.176.184.256.368.088.184.112.312l.024.12h-.736l-.024-.088a.6.6 0 0 0-.112-.208.65.65 0 0 0-.248-.208.9.9 0 0 0-.448-.096q-.384 0-.56.176a.54.54 0 0 0-.176.384.4.4 0 0 0 .16.328q.168.12.432.184l.584.136q.544.128.896.424.36.288.36.832 0 .352-.184.656a1.3 1.3 0 0 1-.528.472q-.343.176-.84.176m5.882 0q-.519 0-.912-.184a2 2 0 0 1-.656-.504 2.4 2.4 0 0 1-.392-.712 2.6 2.6 0 0 1-.128-.8q0-.408.128-.792.129-.392.384-.712.264-.32.656-.504.392-.192.92-.192.513 0 .848.152.336.151.536.384.208.223.304.456.105.224.136.376l.032.152h-.736l-.04-.128a1.1 1.1 0 0 0-.152-.304.96.96 0 0 0-.336-.296q-.223-.136-.592-.136-.44 0-.744.224a1.36 1.36 0 0 0-.448.568 2 2 0 0 0-.144.752q0 .4.144.752.153.352.448.576.304.216.744.216.369 0 .592-.128.225-.136.336-.304.113-.168.152-.296l.04-.136h.736l-.032.152a2 2 0 0 1-.136.384 1.7 1.7 0 0 1-.304.456 1.6 1.6 0 0 1-.536.376q-.335.152-.848.152m4.587 0q-.52 0-.904-.184a1.8 1.8 0 0 1-.624-.512 2.3 2.3 0 0 1-.36-.704 2.7 2.7 0 0 1-.12-.8q0-.4.112-.792.12-.392.36-.712.247-.32.616-.504.375-.192.888-.192.543 0 .96.248t.656.736q.24.487.24 1.224v.224h-3.064q.024.36.168.664.151.295.424.48.272.176.648.176.327 0 .528-.104a1.1 1.1 0 0 0 .328-.256 1 1 0 0 0 .16-.248l.048-.112h.712l-.04.144a1.84 1.84 0 0 1-.448.744 1.8 1.8 0 0 1-.512.344q-.312.136-.776.136m-1.232-2.56h2.312q-.017-.416-.176-.672a1.03 1.03 0 0 0-.408-.392 1.14 1.14 0 0 0-.528-.128q-.504 0-.824.328-.32.32-.376.864m3.853 2.48v-4.24h.76v.528h.032q.135-.24.4-.424.264-.184.744-.184.135 0 .248.016l.112.008v.728l-.128-.008a2 2 0 0 0-.256-.016q-.553 0-.856.32-.296.312-.296 1.024V117zm4.692.08q-.656 0-.992-.336-.328-.336-.328-.944v-2.416h-.76v-.624h.76v-1.064h.76v1.064h1.032v.624h-1.032v2.416q0 .32.176.472.177.144.512.144.177 0 .336-.024l.16-.024v.648l-.184.032a2.6 2.6 0 0 1-.44.032m1.878-5.128a.5.5 0 0 1-.36-.144.5.5 0 0 1-.136-.344q0-.208.136-.352a.5.5 0 0 1 .36-.144q.208 0 .352.144a.48.48 0 0 1 .144.352.47.47 0 0 1-.144.344.48.48 0 0 1-.352.144m-.376 5.048v-4.24h.76V117zm2.246 0v-3.616h-.696v-.624h.696v-.52q0-.336.12-.656.12-.328.4-.536t.76-.208q.231 0 .368.04l.144.032v.6l-.128-.024a1 1 0 0 0-.28-.032q-.369 0-.496.224a1.1 1.1 0 0 0-.128.56v.52h2.76V117h-.76v-3.616h-2V117zm3.136-5.048a.5.5 0 0 1-.36-.144.48.48 0 0 1-.136-.344q0-.208.136-.352a.5.5 0 0 1 .36-.144.48.48 0 0 1 .352.144.48.48 0 0 1 .144.352.47.47 0 0 1-.144.344.48.48 0 0 1-.352.144m3.386 5.128q-.52 0-.912-.184a2 2 0 0 1-.656-.504 2.36 2.36 0 0 1-.52-1.512q0-.408.128-.792.127-.392.384-.712.264-.32.656-.504.392-.192.92-.192.512 0 .848.152.335.151.536.384.208.223.304.456.103.224.136.376l.032.152h-.736l-.04-.128a1.2 1.2 0 0 0-.152-.304 1 1 0 0 0-.336-.296q-.225-.136-.592-.136-.441 0-.744.224a1.34 1.34 0 0 0-.448.568 2 2 0 0 0-.144.752q0 .4.144.752.151.352.448.576.303.216.744.216.367 0 .592-.128.224-.136.336-.304.111-.168.152-.296l.04-.136h.736l-.032.152a2 2 0 0 1-.136.384 1.7 1.7 0 0 1-.304.456 1.6 1.6 0 0 1-.536.376q-.336.152-.848.152m4.498-4.4q.4 0 .672.128t.44.304q.168.168.256.32h.048v-.672h.76V117h-.76v-.672h-.048a1.8 1.8 0 0 1-.256.328 1.5 1.5 0 0 1-.44.304q-.272.12-.672.12-.48 0-.84-.184a1.8 1.8 0 0 1-.6-.504 2.3 2.3 0 0 1-.36-.712 2.7 2.7 0 0 1 0-1.6q.12-.392.36-.704.24-.32.6-.504.36-.192.84-.192m.128.648q-.424 0-.712.232a1.37 1.37 0 0 0-.432.576 2 2 0 0 0-.136.744q0 .384.136.744.144.352.432.584.288.224.712.224t.704-.224q.288-.232.424-.584a2 2 0 0 0 0-1.488 1.3 1.3 0 0 0-.424-.576q-.28-.232-.704-.232m4.568 3.752q-.656 0-.992-.336-.327-.336-.328-.944v-2.416h-.76v-.624h.76v-1.064h.76v1.064h1.032v.624h-1.032v2.416q0 .32.176.472.177.144.512.144.177 0 .336-.024l.16-.024v.648l-.184.032a2.6 2.6 0 0 1-.44.032m3.154 0q-.52 0-.904-.184a1.8 1.8 0 0 1-.624-.512 2.3 2.3 0 0 1-.36-.704 2.7 2.7 0 0 1-.12-.8q0-.4.112-.792.12-.392.36-.712.248-.32.616-.504.376-.192.888-.192.544 0 .96.248t.656.736q.24.487.24 1.224v.224h-3.064q.024.36.168.664.152.295.424.48.271.176.648.176.329 0 .528-.104.208-.112.328-.256a1 1 0 0 0 .16-.248l.048-.112h.712l-.04.144a1.8 1.8 0 0 1-.448.744 1.8 1.8 0 0 1-.512.344q-.312.136-.776.136m-1.232-2.56h2.312q-.016-.416-.176-.672a1.03 1.03 0 0 0-.408-.392 1.14 1.14 0 0 0-.528-.128q-.504 0-.824.328-.32.32-.376.864m5.953-2.568a.5.5 0 0 1-.36-.144.48.48 0 0 1-.136-.344q0-.208.136-.352a.5.5 0 0 1 .36-.144q.208 0 .352.144a.48.48 0 0 1 .144.352.47.47 0 0 1-.144.344.48.48 0 0 1-.352.144m-.376 5.048v-4.24h.76V117zm3.301.08q-.487 0-.808-.136a1.5 1.5 0 0 1-.496-.336 1.6 1.6 0 0 1-.272-.408 1.7 1.7 0 0 1-.136-.48h.768l.024.112q.033.104.12.248.096.136.288.248.201.104.528.104.377 0 .584-.176a.58.58 0 0 0 .208-.448.45.45 0 0 0-.168-.368q-.16-.136-.464-.208l-.576-.136a3 3 0 0 1-.6-.216 1.25 1.25 0 0 1-.456-.368 1 1 0 0 1-.168-.592q0-.544.408-.888.408-.352 1.064-.352.44 0 .728.128.288.12.456.304.177.184.256.368.088.184.112.312l.024.12h-.736l-.024-.088a.6.6 0 0 0-.112-.208.65.65 0 0 0-.248-.208.9.9 0 0 0-.448-.096q-.384 0-.56.176a.54.54 0 0 0-.176.384q0 .2.16.328.168.12.432.184l.584.136q.545.128.896.424.36.288.36.832 0 .352-.184.656a1.3 1.3 0 0 1-.528.472q-.344.176-.84.176m3.955 1.488v-5.808h.76v.672h.048q.096-.152.256-.328.168-.176.44-.296.272-.128.672-.128a1.76 1.76 0 0 1 1.44.696q.24.312.36.704a2.7 2.7 0 0 1 0 1.6q-.12.392-.36.712-.24.312-.6.504-.36.184-.84.184-.4 0-.672-.128a1.5 1.5 0 0 1-.44-.304 3 3 0 0 1-.256-.32h-.048v2.24zm.776-3.688q0 .384.136.744.144.352.424.584.288.224.712.224.432 0 .712-.224.288-.232.424-.584a2 2 0 0 0 0-1.488 1.3 1.3 0 0 0-.424-.576q-.28-.232-.712-.232-.424 0-.712.232a1.4 1.4 0 0 0-.424.576 2 2 0 0 0-.136.744m4.122 2.12v-4.24h.76v.528h.032q.136-.24.4-.424t.744-.184q.137 0 .248.016l.112.008v.728l-.128-.008a2 2 0 0 0-.256-.016q-.552 0-.856.32-.296.312-.296 1.024V117zm4.501.08q-.52 0-.904-.184a1.8 1.8 0 0 1-.624-.512 2.3 2.3 0 0 1-.36-.704 2.7 2.7 0 0 1-.12-.8q0-.4.112-.792.12-.392.36-.712.247-.32.616-.504.375-.192.888-.192.543 0 .96.248t.656.736q.24.487.24 1.224v.224h-3.064q.024.36.168.664.151.295.424.48.271.176.648.176.327 0 .528-.104a1.1 1.1 0 0 0 .328-.256 1 1 0 0 0 .16-.248l.048-.112h.712l-.04.144a1.84 1.84 0 0 1-.448.744 1.8 1.8 0 0 1-.512.344q-.312.136-.776.136m-1.232-2.56h2.312q-.017-.416-.176-.672a1.03 1.03 0 0 0-.408-.392 1.14 1.14 0 0 0-.528-.128q-.504 0-.824.328-.32.32-.376.864m5.405 2.56q-.488 0-.808-.136a1.5 1.5 0 0 1-.496-.336 1.6 1.6 0 0 1-.272-.408 1.7 1.7 0 0 1-.136-.48h.768l.024.112q.031.104.12.248.096.136.288.248.2.104.528.104.376 0 .584-.176a.58.58 0 0 0 .208-.448.45.45 0 0 0-.168-.368 1.1 1.1 0 0 0-.464-.208l-.576-.136a3 3 0 0 1-.6-.216 1.24 1.24 0 0 1-.456-.368 1 1 0 0 1-.168-.592q0-.544.408-.888.408-.352 1.064-.352.44 0 .728.128.288.12.456.304.176.184.256.368.088.184.112.312l.024.12h-.736l-.024-.088a.6.6 0 0 0-.112-.208.65.65 0 0 0-.248-.208.9.9 0 0 0-.448-.096q-.384 0-.56.176a.54.54 0 0 0-.176.384.4.4 0 0 0 .16.328q.168.12.432.184l.584.136q.544.128.896.424.36.288.36.832 0 .352-.184.656a1.3 1.3 0 0 1-.528.472q-.344.176-.84.176m4.12 0a2.1 2.1 0 0 1-.904-.184 1.85 1.85 0 0 1-.624-.512 2.3 2.3 0 0 1-.36-.704 2.7 2.7 0 0 1-.12-.8q0-.4.112-.792.12-.392.36-.712.249-.32.616-.504.377-.192.888-.192.544 0 .96.248a1.7 1.7 0 0 1 .656.736q.24.487.24 1.224v.224h-3.064q.024.36.168.664.153.295.424.48.273.176.648.176.328 0 .528-.104.208-.112.328-.256a1 1 0 0 0 .16-.248l.048-.112h.712l-.04.144a1.84 1.84 0 0 1-.448.744 1.8 1.8 0 0 1-.512.344q-.312.136-.776.136m-1.232-2.56h2.312q-.015-.416-.176-.672a1 1 0 0 0-.408-.392 1.14 1.14 0 0 0-.528-.128q-.504 0-.824.328-.32.32-.376.864m3.853 2.48v-4.24h.76v.616h.048q.057-.096.184-.264.137-.168.384-.296.249-.136.624-.136.465 0 .792.216.328.208.496.568.176.36.176.808V117h-.76v-2.68q0-.424-.24-.704-.231-.28-.68-.28-.36 0-.584.184a1.07 1.07 0 0 0-.336.472 1.8 1.8 0 0 0-.104.616V117zm5.99.08q-.656 0-.992-.336-.328-.336-.328-.944v-2.416h-.76v-.624h.76v-1.064h.76v1.064h1.032v.624h-1.032v2.416q0 .32.176.472.176.144.512.144.175 0 .336-.024l.16-.024v.648l-.184.032a2.6 2.6 0 0 1-.44.032m3.154 0q-.52 0-.904-.184a1.8 1.8 0 0 1-.624-.512 2.3 2.3 0 0 1-.36-.704 2.7 2.7 0 0 1-.12-.8q0-.4.112-.792.12-.392.36-.712.247-.32.616-.504.375-.192.888-.192.543 0 .96.248t.656.736q.24.487.24 1.224v.224h-3.064q.024.36.168.664.151.295.424.48.271.176.648.176.327 0 .528-.104a1.1 1.1 0 0 0 .328-.256 1 1 0 0 0 .16-.248l.048-.112h.712l-.04.144a1.84 1.84 0 0 1-.448.744 1.8 1.8 0 0 1-.512.344q-.312.136-.776.136m-1.232-2.56h2.312q-.017-.416-.176-.672a1.03 1.03 0 0 0-.408-.392 1.14 1.14 0 0 0-.528-.128q-.504 0-.824.328-.32.32-.376.864m5.654 2.56q-.48 0-.84-.184a1.8 1.8 0 0 1-.6-.504 2.3 2.3 0 0 1-.36-.712 2.7 2.7 0 0 1 0-1.6q.12-.392.36-.704.24-.32.6-.504.36-.192.84-.192.399 0 .672.128.272.128.44.304.168.168.256.32h.048v-2.512h.76V117h-.76v-.672h-.048a1.8 1.8 0 0 1-.256.328 1.5 1.5 0 0 1-.44.304 1.7 1.7 0 0 1-.672.12m.128-.648q.423 0 .704-.224.288-.232.424-.584a2 2 0 0 0 0-1.488 1.3 1.3 0 0 0-.424-.576q-.28-.232-.704-.232t-.712.232a1.37 1.37 0 0 0-.432.576 2 2 0 0 0-.136.744q0 .384.136.744.144.352.432.584.288.224.712.224m6.414.648q-.656 0-.992-.336-.328-.336-.328-.944v-2.416h-.76v-.624h.76v-1.064h.76v1.064h1.032v.624h-1.032v2.416q0 .32.176.472.176.144.512.144.175 0 .336-.024l.16-.024v.648l-.184.032a2.6 2.6 0 0 1-.44.032m3.234 0q-.68 0-1.144-.312a2.06 2.06 0 0 1-.704-.824 2.45 2.45 0 0 1-.24-1.064q0-.568.24-1.064a2 2 0 0 1 .704-.816q.463-.32 1.144-.32t1.144.32q.464.312.704.816.24.496.24 1.064 0 .56-.24 1.064t-.704.824q-.465.312-1.144.312m0-.664q.432 0 .72-.216.296-.224.44-.576.152-.352.152-.744 0-.4-.152-.744a1.3 1.3 0 0 0-.44-.568q-.288-.224-.72-.224a1.16 1.16 0 0 0-.72.224 1.34 1.34 0 0 0-.448.568 1.9 1.9 0 0 0-.144.744q0 .392.144.744.151.353.448.576.296.216.72.216M155.433 184.08q-.68 0-1.144-.312a2.06 2.06 0 0 1-.704-.824 2.45 2.45 0 0 1-.24-1.064q0-.568.24-1.064.24-.504.704-.816.464-.32 1.144-.32t1.144.32q.464.312.704.816.24.496.24 1.064 0 .56-.24 1.064t-.704.824q-.464.312-1.144.312m0-.664q.432 0 .72-.216.296-.224.44-.576.152-.353.152-.744 0-.4-.152-.744a1.3 1.3 0 0 0-.44-.568q-.288-.224-.72-.224a1.16 1.16 0 0 0-.72.224 1.35 1.35 0 0 0-.448.568 1.9 1.9 0 0 0-.144.744q0 .391.144.744.152.352.448.576.296.216.72.216m2.885.584v-4.24h.76v.616h.048q.055-.096.184-.264.135-.168.384-.296.247-.136.624-.136.463 0 .792.216.327.208.496.568.176.36.176.808V184h-.76v-2.68q0-.424-.24-.704-.233-.28-.68-.28-.36 0-.584.184-.225.176-.336.472-.105.288-.104.616V184zm6.029 0v-5.92h1.032l1.744 3.52 1.736-3.52h1.032V184h-.768v-4.768l-1.632 3.248h-.744l-1.632-3.264V184zm8.341-4.32q.399 0 .672.128.272.128.44.304.168.168.256.32h.048v-.672h.76V184h-.76v-.672h-.048a1.8 1.8 0 0 1-.256.328 1.5 1.5 0 0 1-.44.304 1.7 1.7 0 0 1-.672.12q-.48 0-.84-.184a1.8 1.8 0 0 1-.6-.504 2.3 2.3 0 0 1-.36-.712 2.7 2.7 0 0 1 0-1.6q.12-.392.36-.704.24-.32.6-.504.36-.192.84-.192m.128.648q-.424 0-.712.232a1.37 1.37 0 0 0-.432.576 2 2 0 0 0-.136.744q0 .384.136.744.144.352.432.584.288.224.712.224.423 0 .704-.224.288-.232.424-.584a2 2 0 0 0 0-1.488 1.3 1.3 0 0 0-.424-.576q-.28-.232-.704-.232M175.74 184v-4.24h.76v.528h.032q.136-.24.4-.424t.744-.184q.137 0 .248.016l.112.008v.728l-.128-.008a2 2 0 0 0-.256-.016q-.552 0-.856.32-.296.312-.296 1.024V184zm4.581.08q-.52 0-.912-.184a2 2 0 0 1-.656-.504 2.4 2.4 0 0 1-.392-.712 2.6 2.6 0 0 1-.128-.8q0-.408.128-.792.127-.392.384-.712.264-.32.656-.504.392-.192.92-.192.512 0 .848.152.336.151.536.384.208.223.304.456a1.8 1.8 0 0 1 .168.528h-.736l-.04-.128a1.2 1.2 0 0 0-.152-.304 1 1 0 0 0-.336-.296q-.224-.136-.592-.136-.44 0-.744.224a1.35 1.35 0 0 0-.448.568 2 2 0 0 0-.144.752q0 .4.144.752.152.353.448.576.304.216.744.216.368 0 .592-.128.224-.136.336-.304t.152-.296l.04-.136h.736l-.032.152a2 2 0 0 1-.136.384 1.7 1.7 0 0 1-.304.456 1.6 1.6 0 0 1-.536.376q-.336.152-.848.152m2.738-.08v-6.08h.76v2.456h.048q.057-.096.184-.264.137-.168.384-.296.249-.136.624-.136.465 0 .792.216.328.208.496.568.176.36.176.808V184h-.76v-2.68q0-.424-.24-.704-.231-.28-.68-.28-.36 0-.584.184a1.07 1.07 0 0 0-.336.472 1.8 1.8 0 0 0-.104.616V184zm6.036 0v-.552l1.296-1.2.952-.88q.415-.384.648-.744a1.43 1.43 0 0 0 .232-.792q0-.36-.176-.608a1.1 1.1 0 0 0-.44-.376 1.2 1.2 0 0 0-.552-.136q-.376 0-.616.128a1 1 0 0 0-.368.32 1.3 1.3 0 0 0-.184.376 1.4 1.4 0 0 0-.064.312l-.008.128h-.752l.008-.144q.008-.144.056-.368a2.4 2.4 0 0 1 .176-.472 1.8 1.8 0 0 1 .336-.48q.224-.224.568-.368.352-.144.856-.144.512 0 .952.216.448.208.72.616.272.4.272.984 0 .536-.272.976a4.2 4.2 0 0 1-.704.848q-.44.416-.96.896l-.816.752h2.88V184zm7.417 0v-1.376l-2.896-.008v-.712l2.72-3.824h.96v3.864h1.032v.68h-1.032V184zm-2.088-2.056h2.088V179zm4.815 3.04.576-.928a.5.5 0 0 1-.328-.16.5.5 0 0 1-.128-.352.46.46 0 0 1 .16-.368.54.54 0 0 1 .36-.136.54.54 0 0 1 .376.136q.16.137.16.384 0 .224-.176.512-.168.288-.544.832l-.056.08zm3.81-.984v-.552l1.296-1.2.952-.88q.415-.384.648-.744a1.43 1.43 0 0 0 .232-.792q0-.36-.176-.608a1.1 1.1 0 0 0-.44-.376 1.2 1.2 0 0 0-.552-.136q-.376 0-.616.128a1 1 0 0 0-.368.32 1.3 1.3 0 0 0-.184.376 1.4 1.4 0 0 0-.072.44h-.752l.008-.144q.008-.144.056-.368a2.4 2.4 0 0 1 .176-.472 1.8 1.8 0 0 1 .336-.48q.224-.224.568-.368.352-.144.856-.144.512 0 .952.216.448.208.72.616.272.4.272.984 0 .536-.272.976a4.2 4.2 0 0 1-.704.848q-.44.416-.96.896l-.816.752h2.88V184zm7.027.072q-.552 0-.976-.24a2.2 2.2 0 0 1-.712-.664 3.4 3.4 0 0 1-.432-.976 4.6 4.6 0 0 1-.144-1.16q0-.616.144-1.16.151-.552.432-.976.288-.424.712-.664t.976-.24.976.24.704.664q.288.424.432.976.152.544.152 1.16 0 .608-.152 1.16-.144.552-.432.976a2.15 2.15 0 0 1-.704.664q-.424.24-.976.24m0-.72q.632 0 1.04-.584.416-.592.416-1.736t-.416-1.728q-.408-.584-1.04-.584t-1.048.584q-.408.584-.408 1.728 0 1.136.408 1.728.416.592 1.048.592m3.11.648v-.552l1.296-1.2.952-.88q.417-.384.648-.744a1.43 1.43 0 0 0 .232-.792q0-.36-.176-.608a1.07 1.07 0 0 0-.44-.376 1.2 1.2 0 0 0-.552-.136q-.375 0-.616.128a1 1 0 0 0-.368.32 1.5 1.5 0 0 0-.256.816h-.752l.008-.144q.008-.144.056-.368.057-.224.176-.472a1.8 1.8 0 0 1 .336-.48 1.8 1.8 0 0 1 .568-.368q.352-.144.856-.144.513 0 .952.216.448.208.72.616.272.4.272.984 0 .536-.272.976a4.2 4.2 0 0 1-.704.848q-.44.416-.96.896l-.816.752h2.88V184zm7.417 0v-1.376l-2.896-.008v-.712l2.72-3.824h.96v3.864h1.032v.68h-1.032V184zm-2.088-2.056h2.088V179zm4.816 3.04.576-.928a.495.495 0 0 1-.456-.512q0-.232.16-.368a.54.54 0 0 1 .36-.136q.223 0 .376.136a.48.48 0 0 1 .16.384q0 .224-.176.512a15 15 0 0 1-.544.832l-.056.08zm4.217-.984v-3.616h-.696v-.624h.696v-.52q0-.336.12-.656.12-.328.4-.536t.76-.208q.233 0 .368.04l.144.032v.6l-.128-.024a1 1 0 0 0-.28-.032q-.367 0-.496.224a1.1 1.1 0 0 0-.128.56v.52h.984v.624h-.984V184zm4.116.08q-.68 0-1.144-.312a2.06 2.06 0 0 1-.704-.824 2.45 2.45 0 0 1-.24-1.064q0-.568.24-1.064.24-.504.704-.816.464-.32 1.144-.32t1.144.32q.464.312.704.816.24.496.24 1.064 0 .56-.24 1.064t-.704.824q-.464.312-1.144.312m0-.664q.432 0 .72-.216.296-.224.44-.576.152-.353.152-.744 0-.4-.152-.744a1.3 1.3 0 0 0-.44-.568q-.288-.224-.72-.224a1.16 1.16 0 0 0-.72.224 1.35 1.35 0 0 0-.448.568 1.9 1.9 0 0 0-.144.744q0 .391.144.744.152.352.448.576.296.216.72.216m2.885.584v-4.24h.76v.528h.032q.136-.24.4-.424t.744-.184q.136 0 .248.016l.112.008v.728l-.128-.008a2 2 0 0 0-.256-.016q-.552 0-.856.32-.296.312-.296 1.024V184zm6.048.08q-.487 0-.808-.136a1.5 1.5 0 0 1-.496-.336 1.6 1.6 0 0 1-.272-.408 1.7 1.7 0 0 1-.136-.48h.768l.024.112q.033.104.12.248.096.136.288.248.201.104.528.104.377 0 .584-.176a.58.58 0 0 0 .208-.448.45.45 0 0 0-.168-.368q-.16-.136-.464-.208l-.576-.136a3 3 0 0 1-.6-.216 1.25 1.25 0 0 1-.456-.368 1 1 0 0 1-.168-.592q0-.544.408-.888.408-.352 1.064-.352.44 0 .728.128.288.12.456.304.177.184.256.368.088.184.112.312l.024.12h-.736l-.024-.088a.6.6 0 0 0-.112-.208.65.65 0 0 0-.248-.208.9.9 0 0 0-.448-.096q-.383 0-.56.176a.54.54 0 0 0-.176.384q0 .2.16.328.168.12.432.184l.584.136q.545.128.896.424.36.288.36.832 0 .352-.184.656a1.3 1.3 0 0 1-.528.472q-.343.176-.84.176m3.655 0q-.632 0-1.008-.392t-.376-1.088v-2.84h.76v2.8q0 .416.224.64.232.224.608.224.384 0 .616-.2t.336-.512.104-.64v-2.312h.76V184h-.76v-.608h-.048a1.6 1.6 0 0 1-.184.264 1.4 1.4 0 0 1-.384.296q-.247.128-.648.128m4.915 0q-.519 0-.912-.184a2 2 0 0 1-.656-.504 2.4 2.4 0 0 1-.392-.712 2.6 2.6 0 0 1-.128-.8q0-.408.128-.792.129-.392.384-.712.264-.32.656-.504.392-.192.92-.192.513 0 .848.152.336.151.536.384.208.223.304.456.105.224.136.376l.032.152h-.736l-.04-.128a1.1 1.1 0 0 0-.152-.304.96.96 0 0 0-.336-.296q-.223-.136-.592-.136-.44 0-.744.224a1.36 1.36 0 0 0-.448.568 2 2 0 0 0-.144.752q0 .4.144.752.153.353.448.576.304.216.744.216.369 0 .592-.128.225-.136.336-.304.113-.168.152-.296l.04-.136h.736l-.032.152a2 2 0 0 1-.136.384 1.7 1.7 0 0 1-.304.456 1.6 1.6 0 0 1-.536.376q-.335.152-.848.152m4.666 0q-.519 0-.912-.184a2 2 0 0 1-.656-.504 2.4 2.4 0 0 1-.392-.712 2.6 2.6 0 0 1-.128-.8q0-.408.128-.792.129-.392.384-.712.264-.32.656-.504.393-.192.92-.192.513 0 .848.152.336.151.536.384.208.223.304.456.105.224.136.376l.032.152h-.736l-.04-.128a1.1 1.1 0 0 0-.152-.304.96.96 0 0 0-.336-.296q-.223-.136-.592-.136-.44 0-.744.224a1.36 1.36 0 0 0-.448.568 2 2 0 0 0-.144.752q0 .4.144.752.153.353.448.576.305.216.744.216.369 0 .592-.128.225-.136.336-.304.113-.168.152-.296l.04-.136h.736l-.032.152a2 2 0 0 1-.136.384 1.7 1.7 0 0 1-.304.456 1.6 1.6 0 0 1-.536.376q-.335.152-.848.152m4.587 0q-.52 0-.904-.184a1.8 1.8 0 0 1-.624-.512 2.3 2.3 0 0 1-.36-.704 2.7 2.7 0 0 1-.12-.8q0-.4.112-.792.12-.392.36-.712.247-.32.616-.504.375-.192.888-.192.543 0 .96.248t.656.736.24 1.224v.224h-3.064q.024.36.168.664.151.296.424.48.272.176.648.176.327 0 .528-.104a1.1 1.1 0 0 0 .328-.256 1 1 0 0 0 .16-.248l.048-.112h.712l-.04.144a1.84 1.84 0 0 1-.448.744 1.8 1.8 0 0 1-.512.344q-.312.136-.776.136m-1.232-2.56h2.312q-.017-.415-.176-.672a1.03 1.03 0 0 0-.408-.392 1.14 1.14 0 0 0-.528-.128q-.504 0-.824.328-.32.32-.376.864m5.405 2.56q-.489 0-.808-.136a1.45 1.45 0 0 1-.496-.336 1.6 1.6 0 0 1-.408-.888h.768l.024.112q.032.104.12.248.096.136.288.248.2.104.528.104.375 0 .584-.176a.58.58 0 0 0 .208-.448.45.45 0 0 0-.168-.368 1.1 1.1 0 0 0-.464-.208l-.576-.136a3 3 0 0 1-.6-.216 1.24 1.24 0 0 1-.456-.368 1 1 0 0 1-.168-.592q0-.544.408-.888.407-.352 1.064-.352.44 0 .728.128.288.12.456.304a1.3 1.3 0 0 1 .256.368q.087.184.112.312l.024.12h-.736l-.024-.088a.6.6 0 0 0-.112-.208.66.66 0 0 0-.248-.208.9.9 0 0 0-.448-.096q-.384 0-.56.176a.53.53 0 0 0-.176.384.4.4 0 0 0 .16.328q.168.12.432.184l.584.136q.543.128.896.424.36.288.36.832 0 .352-.184.656a1.3 1.3 0 0 1-.528.472q-.345.176-.84.176m3.822 0q-.487 0-.808-.136a1.5 1.5 0 0 1-.496-.336 1.6 1.6 0 0 1-.272-.408 1.7 1.7 0 0 1-.136-.48h.768l.024.112q.033.104.12.248.096.136.288.248.201.104.528.104.377 0 .584-.176a.58.58 0 0 0 .208-.448.45.45 0 0 0-.168-.368q-.16-.136-.464-.208l-.576-.136a3 3 0 0 1-.6-.216 1.25 1.25 0 0 1-.456-.368 1 1 0 0 1-.168-.592q0-.544.408-.888.408-.352 1.064-.352.44 0 .728.128.288.12.456.304.177.184.256.368.088.184.112.312l.024.12h-.736l-.024-.088a.6.6 0 0 0-.112-.208.65.65 0 0 0-.248-.208.9.9 0 0 0-.448-.096q-.383 0-.56.176a.54.54 0 0 0-.176.384q0 .2.16.328.168.12.432.184l.584.136q.545.128.896.424.36.288.36.832 0 .352-.184.656a1.3 1.3 0 0 1-.528.472q-.344.176-.84.176m2.767-.08v-3.616h-.696v-.624h.696v-.52q0-.336.12-.656.12-.328.4-.536t.76-.208q.231 0 .368.04l.144.032v.6l-.128-.024a1 1 0 0 0-.28-.032q-.369 0-.496.224a1.1 1.1 0 0 0-.128.56v.52h.984v.624h-.984V184zm3.734.08q-.633 0-1.008-.392-.376-.392-.376-1.088v-2.84h.76v2.8q0 .416.224.64.231.224.608.224.384 0 .616-.2t.336-.512.104-.64v-2.312h.76V184h-.76v-.608h-.048a1.7 1.7 0 0 1-.184.264 1.4 1.4 0 0 1-.384.296q-.249.128-.648.128m2.987-.08.008-6.08h.752V184zm1.799 0 .008-6.08h.752V184zm1.879 1.56a2.5 2.5 0 0 1-.44-.032v-.648l.128.008q.137.016.288.016.473 0 .768-.2.304-.192.512-.64l-1.64-4.304h.792l1.224 3.312 1.232-3.312h.8l-1.64 4.248q-.312.8-.808 1.176-.488.376-1.216.376m7.876-1.48q-.52 0-.912-.184a2 2 0 0 1-.656-.504 2.4 2.4 0 0 1-.392-.712 2.6 2.6 0 0 1-.128-.8q0-.408.128-.792.127-.392.384-.712.264-.32.656-.504.392-.192.92-.192.512 0 .848.152.336.151.536.384.208.223.304.456a1.8 1.8 0 0 1 .168.528h-.736l-.04-.128a1.2 1.2 0 0 0-.152-.304 1 1 0 0 0-.336-.296q-.224-.136-.592-.136-.44 0-.744.224a1.35 1.35 0 0 0-.448.568 2 2 0 0 0-.144.752q0 .4.144.752.152.353.448.576.305.216.744.216.368 0 .592-.128.224-.136.336-.304a1.2 1.2 0 0 0 .192-.432h.736l-.032.152a2 2 0 0 1-.136.384 1.7 1.7 0 0 1-.304.456 1.6 1.6 0 0 1-.536.376q-.336.152-.848.152m4.666 0q-.68 0-1.144-.312a2.06 2.06 0 0 1-.704-.824 2.45 2.45 0 0 1-.24-1.064q0-.568.24-1.064.24-.504.704-.816.464-.32 1.144-.32t1.144.32q.464.312.704.816.24.496.24 1.064 0 .56-.24 1.064t-.704.824q-.464.312-1.144.312m0-.664q.432 0 .72-.216.296-.224.44-.576.152-.353.152-.744 0-.4-.152-.744a1.3 1.3 0 0 0-.44-.568q-.288-.224-.72-.224a1.16 1.16 0 0 0-.72.224 1.35 1.35 0 0 0-.448.568 1.9 1.9 0 0 0-.144.744q0 .391.144.744.152.352.448.576.296.216.72.216m2.885.584v-4.24h.76v.616h.032q.064-.12.2-.28.136-.168.368-.288.24-.128.6-.128.473 0 .792.232.328.224.488.608h.008q.176-.352.496-.592.328-.248.848-.248.688 0 1.056.472.376.464.376 1.2V184h-.76v-2.608q0-.472-.224-.76-.224-.296-.648-.296-.368 0-.592.2a1.14 1.14 0 0 0-.312.496 1.9 1.9 0 0 0-.096.592V184h-.76v-2.608q0-.472-.224-.76-.216-.296-.648-.296-.368 0-.592.2a1.14 1.14 0 0 0-.312.504 1.9 1.9 0 0 0-.096.584V184zm6.981 1.568v-5.808h.76v.672h.048q.096-.152.256-.328.168-.176.44-.296.272-.128.672-.128a1.76 1.76 0 0 1 1.44.696q.24.312.36.704a2.7 2.7 0 0 1 0 1.6q-.12.392-.36.712-.24.312-.6.504-.36.184-.84.184-.4 0-.672-.128a1.5 1.5 0 0 1-.44-.304 3 3 0 0 1-.256-.32h-.048v2.24zm.776-3.688q0 .384.136.744.144.352.424.584.288.224.712.224.432 0 .712-.224.288-.232.424-.584a2 2 0 0 0 0-1.488 1.3 1.3 0 0 0-.424-.576q-.28-.232-.712-.232-.424 0-.712.232a1.4 1.4 0 0 0-.424.576 2 2 0 0 0-.136.744m4.202 2.12.008-6.08h.752V184zm3.647.08a2.1 2.1 0 0 1-.904-.184 1.85 1.85 0 0 1-.624-.512 2.3 2.3 0 0 1-.36-.704 2.7 2.7 0 0 1-.12-.8q0-.4.112-.792.12-.392.36-.712.249-.32.616-.504.377-.192.888-.192.544 0 .96.248a1.7 1.7 0 0 1 .656.736q.24.488.24 1.224v.224h-3.064q.024.36.168.664.153.296.424.48.273.176.648.176.328 0 .528-.104.208-.112.328-.256a1 1 0 0 0 .16-.248l.048-.112h.712l-.04.144a1.84 1.84 0 0 1-.448.744 1.8 1.8 0 0 1-.512.344q-.312.136-.776.136m-1.232-2.56h2.312q-.015-.415-.176-.672a1 1 0 0 0-.408-.392 1.14 1.14 0 0 0-.528-.128q-.504 0-.824.328-.32.32-.376.864m5.575 2.56q-.656 0-.992-.336-.327-.336-.328-.944v-2.416h-.76v-.624h.76v-1.064h.76v1.064h1.032v.624h-1.032v2.416q0 .32.176.472.177.144.512.144.177 0 .336-.024l.16-.024v.648l-.184.032a2.6 2.6 0 0 1-.44.032m1.878-5.128a.5.5 0 0 1-.36-.144.5.5 0 0 1-.136-.344q0-.208.136-.352a.5.5 0 0 1 .36-.144q.208 0 .352.144a.48.48 0 0 1 .144.352.47.47 0 0 1-.144.344.48.48 0 0 1-.352.144m-.376 5.048v-4.24h.76V184zm1.75 0v-4.24h.76v.616h.048q.055-.096.184-.264.135-.168.384-.296.248-.136.624-.136.464 0 .792.216.327.208.496.568.176.36.176.808V184h-.76v-2.68q0-.424-.24-.704-.233-.28-.68-.28-.36 0-.584.184-.225.176-.336.472-.105.288-.104.616V184zm6.386 1.68q-.529 0-.88-.144a1.61 1.61 0 0 1-1.016-1.12l-.032-.136h.76l.04.112q.04.112.152.256.12.144.352.256t.624.112q.464 0 .728-.184a.97.97 0 0 0 .376-.464q.12-.288.12-.608v-.488h-.04a1.7 1.7 0 0 1-.256.312 1.5 1.5 0 0 1-.448.296q-.28.12-.688.12-.48 0-.84-.184a1.8 1.8 0 0 1-.6-.496 2.3 2.3 0 0 1-.352-.696 2.6 2.6 0 0 1 0-1.568q.12-.384.352-.696.24-.312.6-.496t.84-.184q.408 0 .688.128.28.12.448.288.175.168.256.312h.04v-.648h.76v3.992q0 .888-.52 1.408-.513.52-1.464.52m-.064-2.328q.423 0 .704-.216.288-.224.424-.568.144-.344.144-.728t-.144-.728a1.26 1.26 0 0 0-.424-.568q-.28-.216-.704-.216t-.712.216a1.3 1.3 0 0 0-.432.568 2 2 0 0 0-.136.728q0 .384.136.728.144.344.432.568.288.216.712.216"/><path fill="#000" d="M200.589 218.16q-1.44 0-2.528-.512a5.6 5.6 0 0 1-1.808-1.392 6.3 6.3 0 0 1-1.088-1.952 7.2 7.2 0 0 1-.352-2.224q0-1.136.352-2.224a6 6 0 0 1 1.088-1.952 5.3 5.3 0 0 1 1.808-1.392q1.088-.512 2.528-.512 1.2 0 2.064.304t1.44.784.912 1.024q.353.544.528 1.024t.224.784l.064.304h-2.16l-.064-.224a2.4 2.4 0 0 0-.224-.56 2.4 2.4 0 0 0-.496-.688q-.336-.336-.896-.56-.544-.224-1.36-.224-.896 0-1.568.352a3.15 3.15 0 0 0-1.12.928 4.2 4.2 0 0 0-.672 1.328 5.5 5.5 0 0 0-.208 1.504q0 .768.208 1.504.224.72.672 1.312t1.12.944 1.568.352q.816 0 1.36-.224.56-.24.896-.576t.496-.672q.176-.336.224-.56l.064-.24h2.16l-.064.304a5 5 0 0 1-.224.8q-.175.48-.528 1.024a4.7 4.7 0 0 1-.912 1.024q-.576.48-1.44.784t-2.064.304m10.693 0q-1.392 0-2.368-.624a4.17 4.17 0 0 1-1.488-1.616 4.8 4.8 0 0 1-.496-2.16q0-1.152.496-2.144a4.14 4.14 0 0 1 1.488-1.632q.976-.624 2.368-.624 1.408 0 2.368.624.977.624 1.472 1.632.512.992.512 2.144t-.512 2.16q-.495.992-1.472 1.616-.96.624-2.368.624m0-1.776q.72 0 1.2-.368.497-.367.752-.96.256-.608.256-1.296 0-.703-.256-1.296a2.3 2.3 0 0 0-.752-.96q-.48-.368-1.2-.368-.703 0-1.2.368-.495.367-.752.96-.256.593-.256 1.296 0 .688.256 1.296.257.593.752.96.496.368 1.2.368m8.422 1.776q-1.329 0-2.016-.816-.672-.816-.672-2.096v-5.728h2.112v5.376q0 .689.368 1.104.368.4 1.04.4.591 0 .96-.304a1.7 1.7 0 0 0 .528-.784q.176-.48.176-.992v-4.8h2.128V218H222.2v-1.216h-.096a3 3 0 0 1-.464.608 2.4 2.4 0 0 1-.768.544q-.465.224-1.168.224m6.129-.16v-8.48h2.112v1.168h.08q.223-.496.736-.912.512-.416 1.536-.416.32 0 .528.048l.208.032v2.064l-.24-.032a4 4 0 0 0-.56-.032q-1.12 0-1.696.624t-.576 2.016V218zm9.6.16q-1.04 0-1.712-.272-.672-.288-1.072-.704a3.5 3.5 0 0 1-.576-.848 4 4 0 0 1-.256-.688l-.048-.288h2.016l.048.176q.064.176.224.416.175.224.528.4.352.176.928.176.688 0 .992-.288.304-.304.304-.672a.67.67 0 0 0-.272-.56q-.256-.224-.768-.336l-1.168-.24a6.3 6.3 0 0 1-1.312-.416 2.76 2.76 0 0 1-.992-.768q-.384-.496-.384-1.264 0-1.136.864-1.872.864-.752 2.352-.752.944 0 1.552.256.624.256.992.64.384.384.56.768.192.384.24.656l.064.256h-1.952l-.048-.144a1 1 0 0 0-.208-.352 1.2 1.2 0 0 0-.448-.336q-.288-.16-.784-.16-.672 0-.96.288-.272.288-.272.608 0 .352.304.544t.784.288l1.104.24q1.184.24 1.936.832.768.592.768 1.712 0 .752-.4 1.376-.384.608-1.136.976-.736.352-1.792.352m8.536 0q-1.089 0-1.888-.368a4 4 0 0 1-1.312-1.008 4.5 4.5 0 0 1-.768-1.424 5.1 5.1 0 0 1-.256-1.6q0-.816.24-1.584.255-.784.752-1.424a3.6 3.6 0 0 1 1.296-1.008q.783-.384 1.856-.384 1.152 0 2.032.512t1.376 1.504q.496.976.496 2.432v.544h-5.904a2.47 2.47 0 0 0 .592 1.504q.543.624 1.488.624.543 0 .896-.176.352-.176.544-.4.191-.24.272-.4l.08-.176h1.968l-.08.288a4.3 4.3 0 0 1-.304.704q-.209.416-.624.848-.416.416-1.088.704t-1.664.288m-2.08-5.2h3.856q-.048-.992-.592-1.472-.545-.48-1.28-.48-.816 0-1.36.528-.544.512-.624 1.424m13.804 5.04v-9.952h-3.648v-1.888h9.472v1.888h-3.648V218zm8.27-9.792q-.56 0-.928-.368a1.23 1.23 0 0 1-.352-.88q0-.512.352-.88.367-.368.928-.368.56 0 .928.368t.368.88-.368.88a1.26 1.26 0 0 1-.928.368M262.907 218v-8.48h2.128V218zm7.682.16q-.864 0-1.424-.256a2.3 2.3 0 0 1-.88-.672 2.6 2.6 0 0 1-.432-.912 4 4 0 0 1-.128-.976v-4.112h-1.456v-1.712h1.456v-2.112h2.128v2.112h1.904v1.712h-1.904v4.064q0 1.136 1.28 1.136.304 0 .56-.032l.272-.048v1.664l-.416.064a5 5 0 0 1-.96.08m2.794-.16.016-12.16h2.112V218zm7.831.16q-1.089 0-1.888-.368a4 4 0 0 1-1.312-1.008 4.5 4.5 0 0 1-.768-1.424 5.1 5.1 0 0 1-.256-1.6q0-.816.24-1.584.255-.784.752-1.424a3.6 3.6 0 0 1 1.296-1.008q.783-.384 1.856-.384 1.152 0 2.032.512t1.376 1.504q.495.976.496 2.432v.544h-5.904a2.47 2.47 0 0 0 .592 1.504q.543.624 1.488.624.543 0 .896-.176.351-.176.544-.4.192-.24.272-.4l.08-.176h1.968l-.08.288a4.3 4.3 0 0 1-.304.704q-.208.416-.624.848-.416.416-1.088.704t-1.664.288m-2.08-5.2h3.856q-.048-.992-.592-1.472-.545-.48-1.28-.48-.816 0-1.36.528-.545.512-.624 1.424M193.008 93V82.64h1.904v8.708h5.152V93zm10.927.14q-.952 0-1.652-.322a3.5 3.5 0 0 1-1.148-.882 3.9 3.9 0 0 1-.672-1.246 4.5 4.5 0 0 1-.224-1.4q0-.714.21-1.386a4.1 4.1 0 0 1 .658-1.246 3.14 3.14 0 0 1 1.134-.882q.686-.336 1.624-.336 1.008 0 1.778.448t1.204 1.316q.434.855.434 2.128v.476h-5.166q.042.756.518 1.316.475.546 1.302.546.476 0 .784-.154.308-.155.476-.35.168-.21.238-.35l.07-.154h1.722l-.07.252a3.7 3.7 0 0 1-.266.616q-.182.364-.546.742-.364.364-.952.616t-1.456.252m-1.82-4.55h3.374q-.042-.868-.518-1.288a1.64 1.64 0 0 0-1.12-.42q-.714 0-1.19.462-.476.448-.546 1.246m8.924-3.15q.714 0 1.176.238.462.224.728.504.266.266.364.434h.084V85.58h1.862V93h-1.862v-1.036h-.084a2.7 2.7 0 0 1-.364.448q-.266.28-.728.504-.462.225-1.176.224-.826 0-1.442-.322a3.3 3.3 0 0 1-1.036-.882 4.2 4.2 0 0 1-.616-1.246 5 5 0 0 1-.196-1.4q0-.714.196-1.4a4 4 0 0 1 .616-1.232q.42-.56 1.036-.882.616-.336 1.442-.336m.49 1.526q-.63 0-1.064.35-.42.336-.63.868t-.21 1.106.21 1.106.63.882q.434.336 1.064.336t1.05-.336q.42-.35.63-.882t.21-1.106-.21-1.106a2.05 2.05 0 0 0-.63-.868q-.42-.35-1.05-.35M216.014 93v-7.42h1.848v1.022h.07q.196-.434.644-.798.449-.364 1.344-.364.28 0 .462.042l.182.028v1.806l-.21-.028a4 4 0 0 0-.49-.028q-.98 0-1.484.546t-.504 1.764V93zm4.844 0v-7.42h1.862v1.064h.084q.112-.196.35-.476.238-.294.658-.504.42-.225 1.064-.224.854 0 1.4.392.56.378.826 1.008.28.63.28 1.358V93h-1.862v-4.55q0-.602-.336-1.036t-1.008-.434q-.517 0-.84.266a1.5 1.5 0 0 0-.476.658 2.6 2.6 0 0 0-.14.854V93zm9.665 0V82.64h4.088q1.245 0 2.072.504.825.49 1.232 1.288a3.42 3.42 0 0 1 0 3.29q-.407.784-1.232 1.288-.827.504-2.072.504h-2.184V93zm4.074-8.708h-2.17v3.57h2.17q.615 0 1.022-.252.405-.266.602-.672.21-.42.21-.854 0-.448-.21-.854a1.67 1.67 0 0 0-.602-.672q-.407-.266-1.022-.266M238.74 93v-7.42h1.848v1.022h.07q.197-.434.644-.798.449-.364 1.344-.364.28 0 .462.042l.182.028v1.806l-.21-.028a4 4 0 0 0-.49-.028q-.98 0-1.484.546t-.504 1.764V93zm8.144.14q-1.218 0-2.072-.546a3.64 3.64 0 0 1-1.302-1.414 4.2 4.2 0 0 1-.434-1.89q0-1.008.434-1.876a3.6 3.6 0 0 1 1.302-1.428q.854-.546 2.072-.546 1.232 0 2.072.546.854.546 1.288 1.428.448.868.448 1.876a4.1 4.1 0 0 1-.448 1.89 3.53 3.53 0 0 1-1.288 1.414q-.84.546-2.072.546m0-1.554q.63 0 1.05-.322.434-.323.658-.84.224-.533.224-1.134 0-.616-.224-1.134a2 2 0 0 0-.658-.84q-.42-.322-1.05-.322-.617 0-1.05.322a2 2 0 0 0-.658.84 2.8 2.8 0 0 0-.224 1.134q0 .602.224 1.134.224.518.658.84.433.322 1.05.322M251.286 93v-7.42h1.862v1.036h.07q.14-.252.392-.518.252-.28.644-.462.406-.195.994-.196.827 0 1.358.392t.784 1.008h.028a3.1 3.1 0 0 1 .826-.966q.56-.435 1.484-.434.785 0 1.302.364.532.35.784.952.267.601.266 1.302V93h-1.862v-4.55q0-.645-.322-1.05-.307-.42-.924-.42-.489 0-.798.266-.293.252-.434.644a2.6 2.6 0 0 0-.126.798V93h-1.862v-4.55q0-.645-.308-1.05-.308-.42-.938-.42-.489 0-.798.266-.293.252-.434.658a2.6 2.6 0 0 0-.126.784V93zm11.684 2.744V85.58h1.862v1.036h.098a3 3 0 0 1 .35-.448q.266-.28.728-.504.462-.225 1.176-.224.84 0 1.456.336.615.323 1.022.882.405.546.602 1.232a4.76 4.76 0 0 1 0 2.8 4 4 0 0 1-.602 1.246 3.1 3.1 0 0 1-1.022.882q-.616.322-1.456.322-.714 0-1.176-.224a2.7 2.7 0 0 1-.728-.518 4 4 0 0 1-.35-.434h-.098v3.78zm1.834-6.454q0 .574.21 1.106t.63.882q.42.336 1.05.336.644 0 1.064-.336.42-.35.63-.882t.21-1.106-.21-1.106a2.05 2.05 0 0 0-.63-.868q-.42-.35-1.064-.35-.63 0-1.05.35-.42.336-.63.868t-.21 1.106m9.525 3.85q-.757 0-1.246-.224a2 2 0 0 1-.77-.588 2.3 2.3 0 0 1-.378-.798 3.4 3.4 0 0 1-.112-.854v-3.598h-1.274V85.58h1.274v-1.848h1.862v1.848h1.666v1.498h-1.666v3.556q0 .994 1.12.994.265 0 .49-.028l.238-.042v1.456l-.364.056q-.351.07-.84.07m2.864-8.708a1.1 1.1 0 0 1-.812-.322 1.08 1.08 0 0 1-.308-.77q0-.448.308-.77a1.1 1.1 0 0 1 .812-.322 1.1 1.1 0 0 1 .812.322q.322.322.322.77t-.322.77a1.1 1.1 0 0 1-.812.322M276.269 93v-7.42h1.862V93zm2.816 0v-7.42h1.862v1.064h.084q.112-.196.35-.476.238-.294.658-.504.42-.225 1.064-.224.854 0 1.4.392.56.378.826 1.008.28.63.28 1.358V93h-1.862v-4.55q0-.602-.336-1.036t-1.008-.434q-.518 0-.84.266a1.5 1.5 0 0 0-.476.658 2.6 2.6 0 0 0-.14.854V93zm10.947 2.968q-.994 0-1.652-.266-.644-.252-1.022-.63a2.6 2.6 0 0 1-.56-.742 3 3 0 0 1-.238-.63l-.056-.252h1.82l.056.154q.056.155.224.35.182.21.518.364t.896.154q.98 0 1.414-.56t.434-1.358v-.826h-.084a3 3 0 0 1-.448.518 2.3 2.3 0 0 1-.742.476q-.448.195-1.092.196-.826 0-1.442-.322a3.2 3.2 0 0 1-1.036-.854 3.7 3.7 0 0 1-.63-1.19 4.86 4.86 0 0 1 0-2.73q.21-.672.63-1.204.42-.546 1.036-.854.616-.322 1.442-.322.644 0 1.092.196.462.196.742.476.294.266.448.504h.084V85.58h1.862v6.958q0 .966-.406 1.736a2.9 2.9 0 0 1-1.232 1.232q-.811.462-2.058.462m-.042-4.55q.63 0 1.05-.322.42-.336.63-.84.21-.518.21-1.078 0-.574-.21-1.078a1.97 1.97 0 0 0-.63-.84q-.42-.322-1.05-.322-.644 0-1.078.322-.42.323-.63.84-.21.504-.21 1.078 0 .56.21 1.078.21.504.63.84.434.322 1.078.322"/><path fill="#FDFDFD" d="M184.848 87.982c-.005.194-.002.38-.018.564-.016.186-.05.37-.078.556-.025.172-.039.347-.083.514-.072.27-.166.533-.246.801-.034.112-.072.22-.044.349.038.173-.034.338-.101.496a15 15 0 0 1-.328.72c-.051.106-.12.203-.181.303l-.216.346-.036.05c-.057.07-.099.14-.095.239.012.25.004.498-.092.733-.102.252-.219.491-.405.7-.182.205-.39.372-.613.524a3.7 3.7 0 0 1-.923.455c-.338.111-.686.196-1.033.278-.184.044-.374.062-.563.083-.236.027-.474.04-.711.066-.538.06-1.078.027-1.617.028-.229 0-.459-.036-.688-.061-.212-.023-.425-.044-.635-.082a6 6 0 0 1-.692-.162 12 12 0 0 1-.862-.302 6 6 0 0 1-.936-.462 3 3 0 0 1-.627-.522 3 3 0 0 1-.327-.409c-.145-.235-.278-.48-.341-.753-.057-.246-.089-.502-.043-.745.033-.174-.055-.285-.109-.414a6 6 0 0 1-.252-.766c-.056-.211-.105-.424-.156-.637q-.009-.042-.01-.085c-.009-.13-.093-.23-.16-.327-.148-.218-.235-.46-.326-.703a3.7 3.7 0 0 1-.192-.81c-.025-.194.001-.394-.006-.591-.017-.46.096-.889.289-1.3.036-.077.085-.147.115-.225a.7.7 0 0 0 .044-.194c.026-.33.1-.65.171-.97q.1-.456.297-.873c.093-.197.203-.386.312-.574q.155-.263.324-.515c.1-.148.203-.294.319-.43.209-.246.418-.493.647-.722.182-.182.386-.345.593-.5a8 8 0 0 1 .693-.465c.166-.1.347-.175.527-.248.254-.102.508-.207.769-.286.249-.075.506-.119.76-.176a4.4 4.4 0 0 1 .904-.096c.27-.004.542-.027.811-.011.288.017.574.067.86.108.35.05.69.141 1.025.255.328.111.652.239.949.418.242.147.471.317.704.478.081.056.163.112.235.178.129.118.25.244.373.367.071.07.146.136.21.21q.246.29.485.586c.074.093.147.188.207.29.124.209.24.422.357.635.086.155.175.308.251.467.078.165.138.337.211.503.048.11.116.212.158.323.067.183.075.37.006.557-.008.021-.015.05-.032.06-.075.053-.042.114-.027.18q.072.33.134.66c.082.44.064.885.064 1.336m-.539-2.28c.108.016.191-.038.193-.142a.8.8 0 0 0-.036-.255c-.022-.068-.078-.125-.108-.192-.099-.226-.182-.46-.292-.68-.152-.307-.32-.606-.489-.903a4.4 4.4 0 0 0-.635-.86 11 11 0 0 0-.724-.713 5 5 0 0 0-.9-.607 5.3 5.3 0 0 0-1.081-.445c-.228-.067-.463-.109-.695-.16a5 5 0 0 0-1.135-.123c-.317.002-.635.023-.951.05-.206.017-.411.059-.615.095q-.159.03-.313.078c-.255.077-.514.146-.762.24q-.361.14-.702.326a6 6 0 0 0-.613.393c-.171.123-.329.262-.488.4a5.6 5.6 0 0 0-.792.829 8 8 0 0 0-.392.565c-.159.249-.319.498-.459.758a4 4 0 0 0-.368 1.036c-.054.237-.084.48-.131.72-.035.185-.024.373-.136.551-.185.298-.264.642-.306.99a3.7 3.7 0 0 0 .037 1.092c.084.476.255.914.523 1.314.033.048.074.095.089.148.024.085.028.175.044.262.101.568.261 1.116.53 1.63.011.02.008.05.003.074-.016.075-.046.147-.054.223-.03.26.033.509.119.752.109.307.282.572.497.817.243.279.532.496.858.66.29.146.591.27.89.398a5 5 0 0 0 1.148.336c.393.067.79.111 1.187.145.308.027.619.028.929.03.243.002.487-.003.728-.023.393-.033.786-.07 1.176-.125a6 6 0 0 0 1.278-.33 4 4 0 0 0 1.112-.624q.429-.347.613-.864c.075-.209.092-.427.083-.648-.005-.1-.005-.194.058-.286.142-.205.285-.411.404-.63.149-.276.279-.562.407-.848.06-.136.13-.287.058-.433-.039-.08-.011-.128.011-.194.099-.3.201-.6.286-.906.083-.302.14-.61.157-.925.014-.263.055-.525.056-.787a9 9 0 0 0-.05-1.037c-.03-.275-.105-.546-.166-.817-.027-.117-.068-.23-.098-.35 0 0 .004-.006.017-.006"/><path fill="#080A0A" d="M184.285 85.712c.035.115.076.229.103.346.061.271.135.542.166.817.038.343.05.691.049 1.037 0 .262-.041.524-.055.787a4.4 4.4 0 0 1-.157.925c-.085.306-.188.606-.286.907-.022.065-.05.112-.011.193.072.147.002.297-.059.433-.127.286-.258.572-.407.848-.118.219-.261.425-.403.63-.063.092-.063.187-.058.286.009.221-.008.44-.083.649a1.9 1.9 0 0 1-.613.863 4 4 0 0 1-1.112.624 6 6 0 0 1-1.278.33c-.39.056-.783.092-1.176.125q-.363.028-.728.023a11 11 0 0 1-.929-.03 14 14 0 0 1-1.187-.145 5 5 0 0 1-1.148-.336c-.299-.128-.6-.252-.89-.398a2.8 2.8 0 0 1-.859-.66 2.5 2.5 0 0 1-.496-.817c-.086-.243-.149-.491-.119-.752.008-.076.038-.148.054-.223.005-.023.007-.054-.003-.074-.269-.513-.429-1.062-.531-1.63-.015-.087-.019-.177-.043-.261-.015-.054-.057-.1-.089-.148a3.4 3.4 0 0 1-.523-1.315 3.7 3.7 0 0 1-.038-1.092c.043-.348.122-.692.307-.99.112-.178.1-.366.136-.552.046-.239.076-.481.131-.718.081-.36.193-.712.368-1.037.139-.26.299-.509.459-.757q.184-.292.392-.566.353-.456.792-.83c.159-.136.317-.276.487-.398.198-.142.401-.278.613-.394q.341-.186.703-.325c.248-.095.507-.164.761-.24q.155-.049.314-.079c.204-.036.408-.078.615-.095.316-.027.634-.048.951-.05q.574-.002 1.134.123c.233.051.468.093.696.16a5.4 5.4 0 0 1 1.081.445c.318.177.627.368.9.607.254.223.49.467.723.713q.37.391.636.86c.169.297.336.596.489.902.11.221.193.455.292.681.03.067.086.124.108.192.026.081.037.17.036.255-.002.104-.085.158-.203.14-.014 0-.018.002-.022.003zm-10.56 7.579q.007.006.02.023c.088.075.171.157.265.223.217.15.436.299.662.434.137.082.29.138.442.216a5.3 5.3 0 0 0 1.052.32c.434.09.874.148 1.316.151a28 28 0 0 0 1.475-.041 5 5 0 0 0 .669-.082 5.4 5.4 0 0 0 1.01-.263c.254-.1.511-.195.76-.306.168-.075.329-.168.484-.267.196-.125.4-.248.57-.404.222-.203.426-.427.614-.661a4.7 4.7 0 0 0 .662-1.084l-.006-.02a.1.1 0 0 1-.028.018c-.062.028-.128.049-.185.084a8.4 8.4 0 0 1-1.06.56 13 13 0 0 1-1.676.614 5 5 0 0 1-.746.143c-.363.041-.728.06-1.093.083-.115.007-.232 0-.363-.007a5.3 5.3 0 0 1-1.234-.207c-.279-.081-.549-.193-.822-.29-.392-.141-.748-.352-1.096-.575q-.404-.26-.783-.553c-.257-.197-.515-.396-.72-.64-.119.044-.235.103-.357.13-.329.072-.637 0-.926-.165-.084-.047-.164-.101-.247-.152l.002-.01-.166-.153q.024.218.079.418c.074.26.146.522.236.776.095.267.217.525.389.752.187.248.387.485.586.723.053.064.121.114.184.169 0 0-.002 0-.001.01l.016.006-.001.01q.008.004.017.006zm-.109.893q.006.001.022.014c.112.075.218.162.337.222.263.132.528.26.8.37q.423.168.861.297c.347.104.705.167 1.067.2q.593.056 1.188.086c.219.01.439-.007.672-.008q.14-.006.278-.015c.303-.025.607-.044.908-.08.24-.029.48-.072.717-.121.214-.045.429-.094.635-.165.323-.11.636-.246.928-.427.253-.157.483-.341.67-.575.142-.178.224-.386.287-.602.043-.148.047-.299.041-.468l-.059.064c-.177.17-.349.347-.533.51a4 4 0 0 1-.852.545c-.446.222-.903.415-1.388.528q-.491.113-.99.186a9 9 0 0 1-.775.067c-.195.01-.391.008-.587.005a24 24 0 0 1-.709-.022c-.131-.014-.264-.023-.394-.044-.269-.042-.539-.081-.806-.137a5 5 0 0 1-1.022-.347 4.7 4.7 0 0 1-1.09-.692 6.3 6.3 0 0 1-.999-1.104l-.101-.148c-.035.172-.02.334.011.498.058.306.188.584.367.833.121.17.286.31.432.461.016.016.042.022.064.03 0 0-.003 0-.009.01q.013.011.027.02zm-.165-3.499a.3.3 0 0 1 .065-.015c.327-.069.561-.274.74-.54.271-.401.378-.861.394-1.337a3.4 3.4 0 0 0-.255-1.424c-.189-.451-.449-.848-.872-1.116a1.1 1.1 0 0 0-.689-.188 1 1 0 0 1-.115.012c-.391.079-.655.323-.854.662l-.01.017s0 .006-.012.014l-.006.038s0-.002-.011.003a3 3 0 0 1-.085.168c-.052.18-.119.356-.152.539a3.3 3.3 0 0 0 .008 1.195c.065.351.176.687.355 1.01.021.036.039.075.064.109.079.105.161.207.25.319.013.021.022.047.04.064.158.144.313.29.516.375.167.07.337.118.534.101.028-.002.056-.005.095-.006m3.531 1.882q.013.002.038.017c.091.027.181.062.273.082.323.069.646.148.972.194a5.6 5.6 0 0 0 1.239.014c.226-.018.45-.054.675-.088a6 6 0 0 0 1.29-.337q.487-.189.965-.4.368-.159.723-.343c.179-.094.347-.21.524-.31.222-.125.312-.33.348-.566.013-.091-.046-.128-.129-.09a.3.3 0 0 0-.062.036c-.113.086-.223.177-.34.257-.225.151-.448.31-.684.442-.283.159-.579.297-.872.438a4 4 0 0 1-.456.194 7.7 7.7 0 0 1-1.307.298 6 6 0 0 1-1.446.033c-.272-.024-.543-.076-.813-.121-.358-.061-.7-.182-1.04-.307a9 9 0 0 1-.571-.232 8 8 0 0 1-.606-.296 6.4 6.4 0 0 1-1.015-.703c-.135-.111-.262-.233-.397-.355a1 1 0 0 1-.064.068l-.225.206c.076.072.149.147.229.213.211.18.42.362.641.53.215.162.434.322.667.458.271.158.554.296.839.429.193.09.397.156.604.24m1.005-8.592.069-.012c.224-.03.448-.069.673-.088.252-.021.505-.026.758-.036.432-.017.862.004 1.291.073.539.087 1.045.268 1.542.479.324.138.637.306.946.477.245.135.479.29.712.444.135.09.261.193.396.294.049-.174-.029-.315-.13-.414a3 3 0 0 0-.485-.356c-.254-.162-.512-.32-.778-.462a9 9 0 0 0-.875-.422c-.27-.11-.555-.184-.836-.267a3 3 0 0 0-.395-.088q-.315-.045-.633-.074a8 8 0 0 0-1.191-.022c-.279.019-.559.04-.835.08-.266.037-.529.094-.792.15-.132.027-.262.07-.404.107l-.662.193c-.39.115-.746.308-1.111.483-.175.084-.341.19-.508.29-.203.123-.409.243-.601.38-.234.167-.457.35-.681.53-.065.053-.116.125-.173.187.068.03.143.06.212.098.045.025.076.018.114-.01.212-.154.418-.317.639-.456q.488-.306.994-.582c.216-.119.445-.214.67-.316.201-.091.4-.188.607-.263q.393-.14.796-.249c.215-.059.435-.098.656-.145zm-5.811 2.09s.001.002.012.001a1.2 1.2 0 0 1 .954-.198c.105-.109.195-.226.307-.316.258-.204.52-.406.794-.589a9 9 0 0 1 .876-.524c.354-.182.721-.34 1.089-.492.206-.085.425-.143.642-.2.308-.083.617-.169.93-.226.354-.065.713-.1 1.082-.146.035-.004.07-.007.117-.01l.072-.006c.188 0 .376-.004.564.003.312.012.625.024.936.05.173.014.343.054.513.09.16.032.322.064.478.113q.374.118.739.26.27.107.526.242.286.147.56.313c.262.16.519.327.775.489-.003-.013-.004-.037-.014-.057-.101-.219-.191-.444-.31-.653q-.266-.465-.567-.907a6 6 0 0 0-.452-.56 5 5 0 0 0-.465-.476 8 8 0 0 0-.716-.55 5 5 0 0 0-1.833-.768 7 7 0 0 0-1.357-.176c-.244-.002-.488.015-.732.027a6.2 6.2 0 0 0-1.242.21 6 6 0 0 0-1.337.535 5.8 5.8 0 0 0-1.25.94 6.3 6.3 0 0 0-.818.956c-.251.365-.493.734-.676 1.138a3 3 0 0 0-.157.415q-.115.432-.211.869c-.03.132-.043.267-.064.4l.025.016c.063-.066.125-.132.199-.195zm10.286 5.478c.163-.089.329-.172.486-.269.2-.123.393-.257.587-.389q.19-.13.375-.267a.15.15 0 0 0 .054-.072q.043-.136.081-.273c.065-.221.14-.44.191-.664a10 10 0 0 0 .223-1.61c.01-.195-.004-.393-.014-.59-.012-.227-.015-.457-.053-.68-.054-.323-.134-.642-.21-.962-.017-.074-.045-.167-.1-.207-.256-.187-.514-.377-.79-.532a15 15 0 0 0-1.073-.532 5 5 0 0 0-.566-.207c-.237-.075-.474-.154-.717-.204a4.6 4.6 0 0 0-.755-.097 13 13 0 0 0-1.046.014 8.7 8.7 0 0 0-1.865.28 7 7 0 0 0-.835.281 15 15 0 0 0-.93.414 7 7 0 0 0-.626.347c-.309.19-.612.391-.914.592-.089.059-.169.132-.261.204.223.164.401.353.55.568.214.311.362.653.459 1.017.094.35.141.707.132 1.07-.003.118-.018.237-.031.356a2.5 2.5 0 0 1-.226.808q-.097.193-.202.39c.142.13.28.265.428.389.126.104.265.193.394.293.277.214.583.382.896.531.306.146.626.262.944.381q.317.118.643.204.32.084.646.13c.298.04.599.076.9.09.219.01.44-.007.659-.03.249-.026.496-.072.743-.11a4.7 4.7 0 0 0 1.058-.305c.257-.105.504-.235.765-.359"/><path fill="#14161F" d="M182.46 91.548c-.256.121-.503.251-.759.355-.341.14-.693.25-1.059.306-.247.038-.494.084-.743.11a4.4 4.4 0 0 1-.659.03c-.301-.014-.601-.05-.9-.09a6 6 0 0 1-.646-.13 7 7 0 0 1-.642-.204c-.318-.118-.639-.235-.945-.38a5 5 0 0 1-.895-.532c-.13-.1-.269-.189-.394-.293-.149-.124-.287-.26-.428-.388.068-.133.137-.26.201-.391.124-.255.195-.527.226-.808.013-.119.028-.237.031-.356a3.8 3.8 0 0 0-.131-1.07 3.3 3.3 0 0 0-.46-1.017 2.3 2.3 0 0 0-.55-.568c.092-.072.172-.145.261-.204.302-.2.605-.402.914-.592q.304-.19.626-.347c.306-.147.615-.288.931-.414.272-.108.551-.208.835-.282a10 10 0 0 1 .995-.198c.288-.044.579-.067.87-.081a12 12 0 0 1 1.045-.014c.253.01.507.046.755.097.243.05.48.129.717.204.192.06.385.123.566.207.363.168.726.337 1.073.532.276.156.534.345.79.532.055.04.083.133.101.208.076.319.155.638.21.96.037.224.04.454.052.682.011.196.024.394.014.59a10 10 0 0 1-.223 1.61c-.051.223-.126.442-.191.663q-.037.137-.081.273a.16.16 0 0 1-.053.072q-.185.137-.375.267c-.195.132-.388.266-.588.39-.157.097-.323.18-.491.271m.818-4.852.069-.036c-.442-.076-.681-.349-.788-.764.007.436-.168.753-.568.947.435.08.678.342.777.755.017-.184.029-.361.12-.52a.9.9 0 0 1 .39-.382m.416.438-.115.245c.048.057.11.114.15.183.04.07.058.153.085.23l.027.002c-.01-.176.011-.342.153-.469-.17-.091-.22-.251-.26-.417l-.022.009c-.005.067-.01.135-.018.216m-.473-1.195c.13.077.137.222.187.348.005-.155-.01-.31.145-.423-.179-.066-.195-.226-.236-.374a.1.1 0 0 0-.017.047c.007.132.011.263-.107.359-.003.002.011.025.028.043"/><path fill="#069871" d="M178.853 83.373c-.356.047-.715.082-1.069.146-.313.058-.622.144-.93.226-.217.058-.436.115-.642.2-.368.152-.735.311-1.089.493a9 9 0 0 0-.876.524c-.273.183-.536.385-.794.59-.112.089-.202.206-.307.315-.342-.073-.661.002-.962.191.039-.201.08-.399.136-.592.17-.585.417-1.135.773-1.632.232-.324.474-.641.769-.91q.45-.414.922-.8c.294-.242.631-.42.98-.567q.441-.181.897-.32c.271-.084.549-.143.824-.212.051-.013.097-.005.136.04.065.073.138.14.204.213.187.21.364.428.497.677.093.172.19.343.266.522.078.182.135.372.193.562.033.108.049.222.072.334"/><path fill="#FDFEFE" d="M178.856 83.374c-.03-.112-.046-.226-.079-.335-.058-.189-.116-.38-.193-.561-.076-.18-.173-.35-.266-.523a3.5 3.5 0 0 0-.497-.677c-.066-.073-.139-.14-.204-.213-.039-.044-.085-.052-.136-.04-.275.07-.553.129-.824.212a10 10 0 0 0-.897.321c-.35.146-.686.324-.98.566q-.472.388-.922.8c-.295.27-.537.586-.769.91a5.3 5.3 0 0 0-.773 1.633c-.056.193-.097.39-.142.592q.004.008-.003.005a.04.04 0 0 0-.017.016l-.188.197-.025-.015c.021-.134.034-.269.064-.4q.096-.437.211-.87c.038-.141.096-.28.157-.414.183-.405.425-.774.676-1.139.24-.348.515-.664.818-.956.378-.363.787-.69 1.25-.94.425-.23.87-.413 1.337-.535a6.3 6.3 0 0 1 1.242-.21c.244-.012.488-.029.732-.026.458.004.909.08 1.357.176a5.3 5.3 0 0 1 1.166.386c.23.11.456.237.667.38q.373.257.716.551c.168.144.318.31.465.477.159.18.317.362.452.56q.302.441.567.907c.119.208.208.434.31.652.01.02.011.045.014.057-.256-.162-.513-.329-.775-.488a9 9 0 0 0-.56-.314 6 6 0 0 0-.526-.242q-.365-.141-.739-.26c-.156-.049-.318-.08-.478-.113-.17-.035-.341-.075-.513-.09a20 20 0 0 0-.936-.05c-.188-.007-.376-.002-.573-.01a.1.1 0 0 1-.02-.044c-.09-.55-.306-1.051-.584-1.529a3.5 3.5 0 0 0-.478-.643q-.084-.091-.165-.186l-.028.021q.029.052.062.1c.13.178.268.35.391.532q.241.356.415.751c.145.327.253.664.333 1.01z"/><path fill="#069871" d="M172.387 90.574c.082.051.162.106.245.153.289.165.598.237.926.165.123-.027.238-.086.357-.13.206.244.463.443.72.64q.38.294.784.553c.347.223.704.433 1.095.574.274.098.544.21.823.29q.602.176 1.238.215c-.241.207-.5.389-.788.521-.252.117-.505.236-.767.326-.257.088-.525.147-.79.21a3 3 0 0 1-.772.1q-.175-.004-.349-.013c-.146-.067-.299-.123-.436-.205a12 12 0 0 1-.661-.434c-.095-.066-.177-.148-.268-.234-.008-.015-.013-.019-.018-.024l.001-.004q-.01-.01-.017-.01l.001-.006q-.008-.01-.017-.011l.002-.006a7 7 0 0 0-.18-.254c-.224-.303-.397-.636-.568-.97a8 8 0 0 1-.481-1.15c-.032-.097-.054-.197-.08-.296"/><path fill="#FEFEFE" d="M175.113 94.18c.113 0 .23.006.346.008.262.005.519-.04.772-.1.265-.063.533-.121.79-.21.262-.09.514-.21.767-.326.288-.132.547-.313.796-.518.119-.004.235.004.351-.003.364-.024.729-.042 1.092-.083a5 5 0 0 0 .746-.144 13 13 0 0 0 1.677-.614 8.4 8.4 0 0 0 1.059-.559c.058-.035.124-.056.195-.082.012.004.015.007.017.009-.166.39-.39.746-.654 1.074a6 6 0 0 1-.614.662c-.171.156-.374.279-.571.404a3.6 3.6 0 0 1-.484.267c-.249.111-.506.206-.76.306-.326.128-.668.2-1.01.263-.221.04-.445.07-.669.081-.491.024-.983.045-1.475.042a7 7 0 0 1-1.315-.15 5 5 0 0 1-1.056-.326"/><path fill="#FDFDFD" d="M177.152 94.799c.233.006.465.016.697.019.196.002.392.005.588-.006.258-.014.518-.03.774-.067q.499-.073.99-.186c.486-.112.943-.306 1.388-.528.304-.152.597-.32.853-.546.184-.162.355-.338.532-.509.017-.016.031-.033.06-.064.005.17.002.32-.042.468a1.7 1.7 0 0 1-.287.602 2.6 2.6 0 0 1-.67.575 4.5 4.5 0 0 1-.928.427c-.206.071-.421.12-.635.165q-.355.076-.717.12c-.301.037-.604.056-.907.08a3 3 0 0 1-.291.01c-.294-.095-.578-.18-.858-.274a1.9 1.9 0 0 1-.547-.286"/><path fill="#FBFCFC" d="m174.242 90.487.053-.063c.135.122.262.244.397.356a6.4 6.4 0 0 0 1.621.999q.281.125.571.231c.34.125.682.246 1.04.307.27.045.541.097.813.122.482.043.965.038 1.446-.034a7.7 7.7 0 0 0 1.307-.298 4 4 0 0 0 .457-.194c.292-.141.588-.28.871-.438.236-.133.459-.29.684-.442.117-.08.227-.171.34-.257a.3.3 0 0 1 .062-.035c.083-.039.142-.002.129.089-.036.237-.126.441-.348.567-.177.1-.345.215-.524.309a12 12 0 0 1-.723.344q-.478.21-.965.4-.626.238-1.29.336c-.225.034-.449.07-.675.088a5.6 5.6 0 0 1-1.239-.014c-.326-.046-.649-.125-.972-.194a2 2 0 0 1-.278-.092l-.041-.063v-.006a1.3 1.3 0 0 0-.216-.297c.017.075.028.125.035.174-.081-.104-.154-.207-.232-.306a.3.3 0 0 0-.102-.09c-.212-.101-.434-.185-.64-.298-.254-.14-.497-.3-.744-.454a3.1 3.1 0 0 1-.708-.61c-.041-.048-.086-.091-.129-.137"/><path fill="#069871" d="M177.147 94.799c.172.129.356.222.552.288.281.095.564.18.852.272-.214.01-.434.027-.653.017q-.596-.031-1.188-.086a5.5 5.5 0 0 1-1.067-.2 10 10 0 0 1-.861-.298 11 11 0 0 1-.8-.37c-.119-.06-.225-.147-.342-.23q-.015-.013-.02-.014l.002-.005q-.01-.016-.022-.025.001.001.004-.005c-.024-.041-.052-.077-.075-.115-.137-.23-.28-.457-.408-.692a2.7 2.7 0 0 1-.285-.854c.294.4.613.776.994 1.095.331.279.692.514 1.089.692.331.148.669.273 1.023.347.266.056.536.096.805.138.131.02.263.029.4.045"/><path fill="#FCFCFC" d="M172.928 86.067c.22-.006.417.072.598.186.422.269.683.666.871 1.117.19.456.272.934.256 1.424-.016.475-.123.935-.394 1.337-.179.265-.413.471-.748.534-.126-.09-.224-.192-.266-.336.262-.073.427-.253.56-.469.169-.273.234-.58.27-.893.017-.15.012-.301.008-.452a2.5 2.5 0 0 0-.181-.885 3.7 3.7 0 0 0-.308-.607c-.147-.223-.34-.409-.607-.49-.086-.027-.179-.033-.268-.055.039-.158.077-.308.209-.411"/><path fill="#FBFBFB" d="M177.031 83.837c.131-.036.26-.079.392-.107.263-.055.526-.112.792-.15.277-.038.557-.06.836-.078a7.5 7.5 0 0 1 1.191.02q.317.029.633.076.2.03.395.087c.28.083.565.158.835.267.3.122.59.27.876.422.266.142.524.3.778.462.169.107.342.217.484.356.101.099.179.24.13.415-.135-.102-.26-.206-.395-.295-.234-.154-.467-.31-.712-.444-.309-.17-.622-.34-.947-.477-.496-.21-1.003-.392-1.541-.479a6.4 6.4 0 0 0-1.292-.073c-.252.01-.505.015-.757.036-.225.02-.449.058-.685.085a.3.3 0 0 0-.069.016s-.004.002-.011-.003c-.041-.01-.075-.02-.109-.02a2.5 2.5 0 0 1-.824-.116"/><path fill="#069871" d="M177.027 83.838c.273.093.55.115.83.116.034 0 .068.01.108.019-.213.053-.433.092-.647.151q-.403.11-.796.249c-.207.075-.406.171-.607.262-.225.103-.454.198-.671.317a19 19 0 0 0-.993.582c-.221.139-.427.302-.639.456-.039.028-.07.035-.115.01-.069-.039-.143-.067-.212-.099.057-.062.108-.133.174-.186.223-.18.447-.363.68-.53.193-.138.398-.257.601-.38.167-.101.333-.206.509-.29.364-.175.721-.369 1.111-.484q.329-.097.667-.193"/><path fill="#F5FAF8" d="M172.383 90.573c.027.098.049.198.08.295q.196.594.482 1.15c.171.334.344.667.568.97q.091.123.18.255c-.063-.05-.132-.1-.185-.164-.199-.238-.399-.476-.586-.723a2.8 2.8 0 0 1-.389-.752c-.09-.255-.162-.516-.235-.776a2.5 2.5 0 0 1-.079-.418 3 3 0 0 1 .164.164z"/><path fill="#F6FAF9" d="M172.831 92.477a2.8 2.8 0 0 0 .288.859c.128.234.271.462.408.691.023.039.051.074.075.117-.023-.005-.049-.011-.064-.027-.147-.152-.311-.291-.433-.461a2.1 2.1 0 0 1-.367-.834 1.3 1.3 0 0 1-.011-.498z"/><path fill="#EAF3F1" d="M171.778 86.975q-.06.318-.117.637c-.059.335-.051.671.009 1.006.033.187.067.376.122.557.054.174.136.34.203.518-.015.013-.029.015-.042.018a3.1 3.1 0 0 1-.355-.998 3.3 3.3 0 0 1-.008-1.195c.033-.183.1-.36.163-.542.016-.002.02-.001.025 0"/><path fill="#F4FDFB" d="M172.543 86.51c-.006-.17.072-.302.186-.424a.4.4 0 0 1 .11-.014c-.088.126-.176.247-.174.412z"/><path fill="#F4FEFB" d="M173.353 90.692c-.126-.077-.227-.165-.236-.327a.2.2 0 0 1 .083-.007c.034.15.139.238.245.327z"/><path fill="#DCEEE9" d="M171.957 89.718c.014-.009.027-.012.044-.019q.132.212.262.439a8 8 0 0 1-.242-.306c-.025-.033-.043-.072-.064-.114"/><path fill="#C6E7DF" d="M171.783 86.972c-.009.003-.014.002-.025 0a1 1 0 0 1 .075-.163 1.4 1.4 0 0 1-.05.163"/><path fill="#069871" d="M176.977 92.563c-.004-.016-.005-.029-.004-.047q.017.017.036.053-.012.004-.032-.006m1.003-8.588a.2.2 0 0 1 .058-.016.2.2 0 0 1-.058.016"/><path fill="#C6E7DF" d="M171.854 86.766q.002.012-.01.037a.1.1 0 0 1 .01-.037"/><path fill="#F6FAF9" d="M173.594 94.152q.015.002.025.02-.017-.001-.025-.02"/><path fill="#FEFEFE" d="M183.711 91.55a.04.04 0 0 1 .013-.019q.004.01.002.025-.007.003-.015-.006"/><path fill="#C6E7DF" d="m171.87 86.736-.006.015q-.003-.003.006-.015"/><path fill="#53FFD4" d="M172.161 86.082q-.003-.01.011-.017.002.01-.011.017"/><path fill="#53FED4" d="M172.389 90.57q-.01.001-.018-.013.009-.002.018.012"/><path fill="#FDFDFD" d="M184.29 85.712q-.008 0-.013-.005.006-.004.017-.004.002.004-.004.01"/><path fill="#F5FAF8" d="M173.695 93.253q.01-.004.017.007-.009.004-.017-.007m.016.016q.01-.004.017.006-.008.005-.017-.006m.012.016q.007 0 .016.014-.007.002-.016-.014"/><path fill="#F6FAF9" d="M173.617 94.178q.005-.003.017.008-.005.003-.017-.008"/><path fill="#fff" d="M183.274 86.696a.9.9 0 0 0-.385.379c-.091.159-.103.336-.12.52-.099-.413-.342-.675-.777-.755.4-.194.575-.511.568-.947.107.415.346.688.788.764zm.425.429.017-.21.022-.009c.04.166.089.326.26.417-.143.128-.164.293-.154.47l-.026-.002c-.028-.077-.045-.16-.086-.23-.039-.07-.102-.126-.15-.183q.055-.115.117-.253m-.484-1.193c-.012-.015-.026-.038-.023-.04.117-.096.114-.227.107-.359q-.002-.02.017-.047c.041.148.056.308.236.374-.155.112-.14.268-.145.423-.05-.126-.057-.27-.192-.35"/><path fill="#090F0E" d="M172.664 86.485a.2.2 0 0 1 .044.002c.096.014.189.02.276.047.266.082.46.267.606.49.124.19.223.398.309.607.115.282.172.58.18.886.004.15.009.302-.008.451-.035.313-.1.62-.269.894-.134.216-.299.395-.561.469l-.044.017c-.03.007-.056.008-.089.011-.322.01-.566-.137-.773-.358-.251-.267-.397-.59-.504-.936a2.9 2.9 0 0 1-.136-.832 2.7 2.7 0 0 1 .16-.988c.084-.218.198-.412.374-.561.086-.073.202-.112.309-.17.043-.012.082-.02.126-.03m1.14 3.023a.1.1 0 0 1 .011-.026q.034-.126.064-.253c.074-.324.073-.65.029-.978a2.8 2.8 0 0 0-.281-.888 1.47 1.47 0 0 0-.577-.642c-.382-.182-.709-.034-.924.306a1.7 1.7 0 0 0-.226.59q-.138.703.064 1.384c.095.315.226.612.448.862.159.18.344.32.589.34a.64.64 0 0 0 .314-.059.7.7 0 0 0 .307-.279c.058-.104.105-.215.156-.323l.011-.002q.004-.014.004-.032s.003.003.011 0"/><path fill="#069871" d="M176.809 92.455c-.002.002.002 0 0 0"/><path fill="#FEFEFE" d="M173.062 86.729c.261.147.437.37.569.634.141.28.24.576.282.888.043.326.044.653-.029.977q-.03.126-.072.26-.012.016-.012.022s-.003-.003-.006 0q-.01.016-.011.03h-.006a.1.1 0 0 0-.048.028c-.123.126-.252.242-.439.264-.143.017-.305-.067-.34-.188a4 4 0 0 1-.093-.369 22 22 0 0 1-.151-.883 6 6 0 0 1-.058-.626 8 8 0 0 1 .013-.717c.01-.166.149-.284.314-.297.029-.002.058-.015.087-.023"/><path fill="#069871" d="M173.054 86.724a.2.2 0 0 1-.084.027c-.165.013-.303.131-.314.297q-.022.358-.013.717.012.316.058.626c.043.296.097.59.152.884.023.124.058.246.093.368.035.121.197.206.34.188.187-.022.315-.138.438-.264a.1.1 0 0 1 .049-.029c-.046.11-.093.222-.152.326a.7.7 0 0 1-.306.279.64.64 0 0 1-.315.058c-.244-.02-.429-.16-.588-.34-.222-.25-.353-.547-.448-.861a2.85 2.85 0 0 1-.064-1.384 1.7 1.7 0 0 1 .226-.59c.215-.34.542-.488.928-.302m.728 2.817q-.004-.014.008-.03.004.015-.008.03m.02-.034q-.004-.006.004-.017.005.006-.004.017"/></svg>